<?xml version="1.0" encoding="UTF-8" standalone="no"?>
<!-- Created with Inkscape (http://www.inkscape.org/) -->

<svg
   xmlns:dc="http://purl.org/dc/elements/1.1/"
   xmlns:cc="http://creativecommons.org/ns#"
   xmlns:rdf="http://www.w3.org/1999/02/22-rdf-syntax-ns#"
   xmlns:svg="http://www.w3.org/2000/svg"
   xmlns="http://www.w3.org/2000/svg"
   xmlns:sodipodi="http://sodipodi.sourceforge.net/DTD/sodipodi-0.dtd"
   xmlns:inkscape="http://www.inkscape.org/namespaces/inkscape"
   width="256"
   height="256"
   viewBox="0 0 67.733332 67.733335"
   version="1.1"
   id="svg1182"
   inkscape:version="0.92.3 (2405546, 2018-03-11)"
   sodipodi:docname="favicon.svg">
  <defs
     id="defs1176" />
  <sodipodi:namedview
     id="base"
     pagecolor="#ffffff"
     bordercolor="#666666"
     borderopacity="1.0"
     inkscape:pageopacity="0.0"
     inkscape:pageshadow="2"
     inkscape:zoom="1.4"
     inkscape:cx="112.05548"
     inkscape:cy="177.77616"
     inkscape:document-units="mm"
     inkscape:current-layer="layer1"
     showgrid="false"
     units="px"
     inkscape:snap-bbox="true"
     inkscape:bbox-paths="true"
     inkscape:snap-bbox-edge-midpoints="true"
     inkscape:bbox-nodes="true"
     inkscape:snap-bbox-midpoints="true"
     inkscape:object-paths="true"
     inkscape:snap-intersection-paths="true"
     inkscape:snap-smooth-nodes="true"
     inkscape:snap-midpoints="true"
     inkscape:snap-object-midpoints="true"
     inkscape:snap-center="true"
     inkscape:snap-text-baseline="true"
     inkscape:snap-page="true"
     inkscape:window-width="1366"
     inkscape:window-height="715"
     inkscape:window-x="0"
     inkscape:window-y="29"
     inkscape:window-maximized="1" />
  <metadata
     id="metadata1179">
    <rdf:RDF>
      <cc:Work
         rdf:about="">
        <dc:format>image/svg+xml</dc:format>
        <dc:type
           rdf:resource="http://purl.org/dc/dcmitype/StillImage" />
        <dc:title></dc:title>
      </cc:Work>
    </rdf:RDF>
  </metadata>
  <g
     inkscape:label="Layer 1"
     inkscape:groupmode="layer"
     id="layer1"
     transform="translate(0,-229.26665)">
    <path
       style="opacity:1;fill:#ffffff;fill-opacity:1;fill-rule:nonzero;stroke:#ffffff;stroke-width:5;stroke-linecap:round;stroke-miterlimit:4;stroke-dasharray:none;paint-order:stroke fill markers"
       d="M 50.957899,251.34326 C 39.772559,249.45983 26.921592,242.41565 19.142025,233.90356 13.880087,228.14616 9.4087008,220.55732 6.7049008,212.79527 L 4.341195,206.00955 4.1389478,130.65241 C 3.91792,48.297626 3.8477592,49.932083 8.055097,39.422341 12.802215,27.564253 23.317768,16.158014 34.813926,10.396991 38.482496,8.5585753 44.055481,6.3394851 47.198338,5.4656788 l 5.714286,-1.5887387 74.642856,-0.00512 c 59.97642,-0.00411 75.48495,0.1838209 78.92857,0.9564797 10.60469,2.379415 21.31952,8.2150642 28.77778,15.6733172 5.31513,5.315131 8.15128,9.4343 11.57598,16.812721 5.21187,11.228822 5.00339,7.435139 5.00339,91.043382 0,72.86771 -0.0396,75.07833 -1.44493,80.57329 -4.50027,17.59711 -17.00151,32.03811 -33.69315,38.92119 -10.4973,4.32874 -8.52402,4.23678 -88.93895,4.14477 -40.382639,-0.0462 -74.945458,-0.34037 -76.806271,-0.65371 z"
       id="path1949"
       inkscape:connector-curvature="0"
       transform="matrix(0.26458333,0,0,0.26458333,0,229.26665)" />
    <g
       id="g1741"
       transform="translate(72.042352,57.598582)"
       inkscape:export-filename="/home/ofen/favicon.png"
       inkscape:export-xdpi="95"
       inkscape:export-ydpi="95">
      <path
         inkscape:connector-curvature="0"
         id="path38"
         style="fill:#000000;fill-opacity:1;fill-rule:nonzero;stroke:none;stroke-width:0.36132905"
         d="m -53.34392,195.88388 c 0.187568,0.2241 0.437659,0.57163 0.773819,1.01457 l 0.58544,0.65689 11.9972,15.09093 0.162397,-12.24111 c 0,-0.44172 -0.147781,-1.31704 -0.430351,-2.63261 -0.338596,-1.49047 -0.508301,-2.26811 -0.508301,-2.33169 -0.04872,-0.37514 -0.14778,-0.94847 -0.302869,-1.69063 -0.03248,-0.12993 -0.08202,-0.32317 -0.155089,-0.58462 -0.211927,-0.0568 -0.466077,-0.13805 -0.768947,-0.26795 -0.395435,-0.13156 -0.759204,-0.26796 -1.08692,-0.43036 -0.04871,-0.0243 -0.130732,-0.0487 -0.246842,-0.0813 -0.09175,-0.0243 -0.183507,-0.0325 -0.261459,-0.0325 l 0.0406,-0.96983 c 0.05684,0 0.124229,0.008 0.209492,0.0325 0.09825,0.0324 0.168892,0.0568 0.218424,0.0877 0.409239,0.14941 0.747835,0.26958 1.009212,0.34266 0.246843,0.0731 0.613858,0.17377 1.079612,0.2712 0.177012,0.0325 0.437658,0.0861 0.776255,0.19487 l 0.931506,6.11586 0.776255,-6.19356 c 0.380819,0.0243 0.899352,0.008 1.541468,-0.0406 0.470137,0 0.850876,-0.0243 1.143189,-0.0568 0.296373,-0.0487 0.526164,-0.0886 0.674757,-0.14048 l 0.04872,0.96942 c -0.211927,0.0568 -0.5083,0.10722 -0.900407,0.1624 -0.200559,0 -0.496933,0.0243 -0.892125,0.073 -0.155089,0 -0.378384,0.0325 -0.656894,0.10804 -0.05684,0.12993 -0.120173,0.39949 -0.187567,0.79737 -0.0812,0.3995 -0.190004,0.97129 -0.313426,1.72644 -0.05684,0.61547 -0.133977,1.51003 -0.22573,2.66338 -0.110438,0.95968 -0.169704,2.02963 -0.197312,3.21658 l -0.190816,14.48423 -15.645924,-19.97607 c -0.69181,-0.88205 -1.246231,-1.6726 -1.6657,-2.36133 -0.225732,-0.33453 -0.522106,-0.82018 -0.846574,-1.43412 -0.105558,-0.31342 -0.187568,-0.6366 -0.233039,-0.97234 0.256587,0 0.634971,-0.0243 1.150498,-0.0649 0.493686,-0.0324 0.870851,-0.0487 1.129142,-0.0487 0.04872,0 0.444154,-0.0324 1.206849,-0.1202 h 0.539157 l -0.0406,0.77626 c -0.18026,0.0861 -0.345904,0.12831 -0.487189,0.14129 -0.141286,0.008 -0.378384,0.0487 -0.712921,0.13803 -0.441718,0.12994 -0.663389,0.34834 -0.663389,0.65933 0,0.073 0.261459,0.63497 0.776254,1.6614 0.127488,0.25821 0.416548,0.69018 0.849822,1.28309 z m 13.980143,21.4749 c 0.230603,0.3118 0.660953,0.4945 1.274813,0.54078 0.440093,0.0487 0.875072,0.0951 1.31265,0.12588 0.256586,0.0811 0.663389,0.17782 1.202545,0.30611 0.05684,0 0.176201,0.0406 0.363768,0.13722 0.197312,0.0894 0.324794,0.12831 0.374325,0.12831 l -0.237099,0.85672 c -0.09419,0 -0.241971,-0.0487 -0.426292,-0.12102 -0.177011,-0.073 -0.30368,-0.10559 -0.385691,-0.10559 -0.489625,-0.0568 -1.160241,-0.12994 -2.014041,-0.20706 -0.378384,0 -0.790058,0 -1.199622,0 -0.40924,0 -0.726724,-0.11858 -0.92899,-0.37513 l -18.23842,-23.07122 v 13.93216 c 0,1.05728 0.0812,2.12576 0.204619,3.21659 l 0.303681,2.58997 c 0.08526,0.77219 0.155089,1.3496 0.236287,1.73764 0.02436,0.17945 0.09581,0.47339 0.194876,0.85096 0.126669,0.0487 0.3524,0.095 0.65933,0.12588 0.201371,0.0243 0.493684,0.0487 0.886359,0.0811 0.204619,0.0243 0.500993,0.0731 0.889283,0.13967 l -0.0406,0.98347 c -0.15103,-0.0568 -0.37676,-0.0975 -0.673134,-0.14048 -0.296373,-0.0487 -0.674757,-0.0649 -1.143271,-0.0649 -0.642278,-0.0406 -1.161703,-0.0487 -1.552591,-0.0324 l -0.768947,-6.20184 -0.938408,6.12559 c -0.177012,0.0568 -0.430351,0.10884 -0.762452,0.18676 -0.06496,0 -0.420606,0.0829 -1.086513,0.23548 -0.261458,0.10884 -0.592747,0.24034 -1.013598,0.38812 -0.0406,0.0324 -0.1153,0.0568 -0.204619,0.0811 -0.09906,0.0325 -0.166456,0.0406 -0.214363,0.0406 l -0.03248,-0.97226 c 0.07308,0 0.159148,-0.0243 0.260646,-0.0568 0.110429,-0.0325 0.187568,-0.0487 0.229791,-0.0487 0.338597,-0.16402 0.699117,-0.30043 1.094146,-0.42873 0.299622,-0.12831 0.564328,-0.21923 0.768947,-0.27282 0.04872,-0.12831 0.101498,-0.32317 0.162397,-0.58138 0.126669,-0.59112 0.313425,-1.75745 0.571635,-3.52725 0.147781,-0.8737 0.310178,-1.75713 0.468514,-2.64528 0.145345,-0.89326 0.229791,-1.70191 0.229791,-2.42345 v -15.05706 c -0.493685,-0.96001 -1.432661,-1.48934 -2.829921,-1.588 -0.148592,-0.0325 -0.317485,-0.0406 -0.505053,-0.0406 l 0.0406,-0.96983 c 0.105558,0 0.240347,0 0.391376,0 0.15996,0.0324 0.275262,0.0406 0.349964,0.0406 1.192802,0.10722 2.194707,0.35565 3.020412,0.73403 l 19.706485,25.35781" />
      <path
         inkscape:connector-curvature="0"
         id="path332"
         style="fill:#000000;fill-opacity:1;fill-rule:nonzero;stroke:none;stroke-width:0.36132905"
         d="m -16.94584,199.47584 c 0,-1.77994 -0.479881,-3.30542 -1.453611,-4.58567 -1.069867,-1.43988 -2.453078,-2.15532 -4.149472,-2.15532 -0.938733,0 -1.818272,0.24684 -2.629767,0.74297 0.317485,-0.10722 0.682065,-0.1551 1.100966,-0.1551 1.714827,0 3.123696,0.62117 4.189261,1.86163 1.075308,1.23787 1.608943,2.73955 1.608943,4.48555 0,2.66477 -1.203926,5.82387 -3.610398,9.48347 3.300059,-3.24046 4.944078,-6.46135 4.944078,-9.6768 z m 1.524416,16.84701 c -1.121915,0.78925 -2.547676,1.17575 -4.269403,1.17575 h -7.407309 c -0.673132,0 -1.143189,0.0731 -1.371925,0.2371 -0.127474,0.073 -0.45877,0.4336 -0.973809,1.05582 h 9.671033 c 1.232103,0 2.114483,-0.12831 2.664763,-0.39218 0.708861,-0.35971 1.270428,-1.05582 1.68665,-2.07617 z m 2.392425,-3.16998 -2.547756,6.34166 h -15.278828 v -0.86386 l 2.540855,-2.77649 c 3.034459,-3.26457 5.095107,-5.69346 6.188848,-7.28584 2.117406,-3.11208 3.178667,-6.03961 3.178667,-8.7807 0,-1.56923 -0.418984,-2.88919 -1.251996,-3.95906 -0.917459,-1.20108 -2.128287,-1.79943 -3.648398,-1.79943 -2.50253,0 -4.192103,1.46084 -5.053129,4.38941 h -1.213751 c 1.199623,-4.73085 4.022723,-7.09648 8.468813,-7.09648 1.983023,0 3.711977,0.60249 5.182558,1.8009 1.482193,1.20677 2.213139,2.78038 2.213139,4.7453 0,2.45454 -0.860702,4.95277 -2.582754,7.4864 -1.203925,1.74738 -2.99938,3.74015 -5.405852,5.99153 -1.542848,1.43811 -2.940107,2.7989 -4.192102,4.07908 h 6.422211 c 1.418615,0 2.479794,-0.12101 3.218048,-0.35403 1.018876,-0.34428 1.87706,-0.97957 2.585596,-1.91797 h 1.175831" />
    </g>
    <path
       style="opacity:1;fill:none;fill-opacity:1;fill-rule:nonzero;stroke:#000000;stroke-width:1.85208333;stroke-linecap:round;stroke-miterlimit:4;stroke-dasharray:none;paint-order:stroke fill markers"
       d="m 16.084994,229.26665 35.562912,0 m 16.085427,16.08582 v 35.56167 M 51.647472,296.99995 H 16.085861 M 0,280.96831 v -35.6158"
       id="rect1745"
       inkscape:connector-curvature="0"
       sodipodi:nodetypes="cccccccc"
       inkscape:export-filename="/home/ofen/favicon.png"
       inkscape:export-xdpi="95"
       inkscape:export-ydpi="95" />
    <path
       style="opacity:1;fill:none;fill-opacity:1;fill-rule:nonzero;stroke:#000000;stroke-width:1.85208333;stroke-linecap:round;stroke-miterlimit:4;stroke-dasharray:none;paint-order:stroke fill markers"
       id="path1918"
       sodipodi:type="arc"
       sodipodi:cx="16.085861"
       sodipodi:cy="245.35251"
       sodipodi:rx="16.085861"
       sodipodi:ry="16.085861"
       sodipodi:start="3.1415927"
       sodipodi:end="4.712389"
       d="M 0,245.35251 A 16.085861,16.085861 0 0 1 4.7114398,233.97809 16.085861,16.085861 0 0 1 16.085862,229.26665"
       sodipodi:open="true" />
    <path
       style="opacity:1;fill:none;fill-opacity:1;fill-rule:nonzero;stroke:#000000;stroke-width:1.85208333;stroke-linecap:round;stroke-miterlimit:4;stroke-dasharray:none;paint-order:stroke fill markers"
       id="path1918-5"
       sodipodi:type="arc"
       sodipodi:cx="-51.647472"
       sodipodi:cy="245.35251"
       sodipodi:rx="16.085861"
       sodipodi:ry="16.085861"
       sodipodi:start="3.1415927"
       sodipodi:end="4.712389"
       d="m -67.733334,245.35251 a 16.085861,16.085861 0 0 1 16.085862,-16.08586"
       sodipodi:open="true"
       transform="scale(-1,1)" />
    <path
       style="opacity:1;fill:none;fill-opacity:1;fill-rule:nonzero;stroke:#000000;stroke-width:1.85208333;stroke-linecap:round;stroke-miterlimit:4;stroke-dasharray:none;paint-order:stroke fill markers"
       id="path1918-3"
       sodipodi:type="arc"
       sodipodi:cx="16.085861"
       sodipodi:cy="-280.91409"
       sodipodi:rx="16.085861"
       sodipodi:ry="16.085861"
       sodipodi:start="3.1415927"
       sodipodi:end="4.712389"
       d="m 0,-280.91409 a 16.085861,16.085861 0 0 1 16.085862,-16.08586"
       sodipodi:open="true"
       transform="scale(1,-1)" />
    <path
       style="opacity:1;fill:none;fill-opacity:1;fill-rule:nonzero;stroke:#000000;stroke-width:1.85208333;stroke-linecap:round;stroke-miterlimit:4;stroke-dasharray:none;paint-order:stroke fill markers"
       id="path1918-56"
       sodipodi:type="arc"
       sodipodi:cx="-51.647472"
       sodipodi:cy="-280.91409"
       sodipodi:rx="16.085861"
       sodipodi:ry="16.085861"
       sodipodi:start="3.1415927"
       sodipodi:end="4.712389"
       d="m -67.733334,-280.91409 a 16.085861,16.085861 0 0 1 16.085862,-16.08586"
       sodipodi:open="true"
       transform="scale(-1)" />
  </g>
</svg>
